# xmcd
#
# Track frame offsets:
#	150
#	13232
#	27324
#	42836
#	57662
#	69951
#	82375
#	94609
#	105503
#	120757
#	135521
#	149054
#	161978
#	172341
#	185410
#	201629
#	216949
#	231241
#
# Disc length: 3602 seconds
#
# Revision: 1
# Processed by: cddbd v1.4PL0 Copyright (c) Steve Scherf et al.
# Submitted via: audiograbber 1.80
#
DISCID=140e1012
DTITLE=Bennie Goodman - The Memorial Album
DYEAR=1900
DGENRE=
TTITLE0=Clarinet A La King
TTITLE1=Somebody Else
TTITLE2=The Man I Love
TTITLE3=Sweet Sue
TTITLE4=Clarinade
TTITLE5=Sugar Foot Stomp
TTITLE6=Remember
TTITLE7=Somebody Stole My Gal
TTITLE8=Opus Half
TTITLE9=Stompin
TTITLE10=Lady Be Good
TTITLE11=All the Cats join In
TTITLE12=The Mad Boogie
TTITLE13=Darktown Strutters Ball
TTITLE14=Body and Soul
TTITLE15=Bel Mir Bist Du Schon
TTITLE16=King Porter Stomp
TTITLE17=Sing Sing Sing
EXTD=
EXTT0=
EXTT1=
EXTT2=
EXTT3=
EXTT4=
EXTT5=
EXTT6=
EXTT7=
EXTT8=
EXTT9=
EXTT10=
EXTT11=
EXTT12=
EXTT13=
EXTT14=
EXTT15=
EXTT16=
EXTT17=
PLAYORDER=
